PathFileType	4	(X/Y/Z)	47_1_4_p0_0-291_filt_butterworth.trc
DataRate	CameraRate	NumFrames	NumMarkers	Units	OrigDataRate	OrigDataStartFrame	OrigNumFrames
59.0	59.0	4	27	m	59.0	0	291
Frame#	Time	RHip			RKnee			RAnkle			RBigToe			RSmallToe			RHeel			LHip			LKnee			LAnkle			LBigToe			LSmallToe			LHeel			Neck			Head			Nose			RShoulder			RElbow			RWrist			RThumb			RIndex			RPinky			LShoulder			LElbow			LWrist			LThumb			LIndex			LPinky			
		X1	Y1	Z1	X2	Y2	Z2	X3	Y3	Z3	X4	Y4	Z4	X5	Y5	Z5	X6	Y6	Z6	X7	Y7	Z7	X8	Y8	Z8	X9	Y9	Z9	X10	Y10	Z10	X11	Y11	Z11	X12	Y12	Z12	X13	Y13	Z13	X14	Y14	Z14	X15	Y15	Z15	X16	Y16	Z16	X17	Y17	Z17	X18	Y18	Z18	X19	Y19	Z19	X20	Y20	Z20	X21	Y21	Z21	X22	Y22	Z22	X23	Y23	Z23	X24	Y24	Z24	X25	Y25	Z25	X26	Y26	Z26	X27	Y27	Z27	
0	0.0	0.365070619361822	0.4148489259289073	-0.1978934276987469	0.3481942067551368	0.6626726804079246	0.20248359090415236	0.3240853266206974	0.8522898947495581	0.5610843478986709	0.3444322783844408	0.7317835357664088	0.6470329244752234	0.40497440523080824	0.7404270010868521	0.6392608479222132	0.26596064889561155	0.9726237553217933	0.6011229397930765	0.17512543159860133	0.3555825472504545	-0.15965174401337023	0.14804630788169068	0.6124516315422138	0.22275000235367626	0.12785688759731773	0.8215012812287431	0.5777162653704069	0.20910387943503883	0.6484638563798094	0.6507648978148382	0.13313365944479288	0.7164310879937485	0.6597198534455333	0.13146981077500652	0.8967600735029566	0.6079097720935478	0.293414814868689	0.11178098848353293	-0.6525701219752623	0.31732648624472864	-0.05053737978900293	-0.8517151828800087	0.3258832145478637	-0.05472319525435722	-0.7057906489189231	0.4247163417493817	0.1736367649157279	-0.5759063731159646	0.4376912124716919	0.27011208356439675	-0.3735943223745306	0.3696757608542513	0.28683280080411355	-0.12982504833639855	0.3013652926831141	0.28723698735553665	-0.02698017249618372	0.29756849957405995	0.30048930024111276	-0.02309923611459539	0.3154986063614684	0.2803475721653541	-0.016508937540859168	0.1393137865995526	0.13404009726591615	-0.5558119011576215	0.13848816771503422	0.20189019991183335	-0.31473136122255985	0.25169331240473347	0.27115579436442816	-0.13116956884519104	0.3343000959476668	0.2672899799889014	-0.04646594119744478	0.3330581157126696	0.27971724426355243	-0.0283527424010145	0.3032023026638913	0.27277872634928807	-0.02691840002099445
1	0.0169491525423728	0.3642084470811113	0.4165204512874495	-0.197461676862412	0.34623704829779184	0.6642906010076964	0.2080679222740122	0.3242038037801222	0.8521131355748898	0.5600127423522545	0.3440741477020873	0.734732885811042	0.6466421773768521	0.4048754513032559	0.7456923163821654	0.6395356705946267	0.2651246333596549	0.9836936046779794	0.5996745089213734	0.1736616324550552	0.35489990426773027	-0.15800521522406466	0.14625325777382422	0.6108637203491942	0.2242574135544343	0.12790404194608146	0.8239479113003014	0.5803747471811388	0.20720687192385148	0.6540271183016271	0.6512048278320599	0.13312088280863835	0.7166534849421905	0.659819889065514	0.130883977597876	0.9000546700765045	0.6130131974191294	0.2933668948897258	0.11190434330184437	-0.652607288032844	0.31732768793808447	-0.050440081334167615	-0.8516403285238194	0.3258803847191564	-0.054637090173664346	-0.7058225707745341	0.42472110429533333	0.1737448867494269	-0.5758654326521675	0.43307878116439236	0.2774376153763427	-0.37467494702141496	0.37014534078151423	0.2796188736490025	-0.12778689540764948	0.29969756591010627	0.2843480625765618	-0.028815658740838287	0.2971376396098747	0.29713203494562684	-0.02518455896340558	0.3145600560553923	0.27909863118988665	-0.017569364028794505	0.139335378924351	0.1340691422168248	-0.5558327959130258	0.13855954196729783	0.20105152192454528	-0.3145899365064533	0.2543514961347987	0.2684496740250617	-0.12963613039495897	0.33323580320755986	0.26914350308728496	-0.04519525044807761	0.33215004100764334	0.2806029187223708	-0.029587839575549817	0.30582198993979126	0.2735954482974225	-0.027551535358405856
2	0.0338983050847457	0.36215090884253354	0.4199419473974033	-0.19734862902529876	0.345530481058085	0.665753458922578	0.2109193659833639	0.32421793803195054	0.852150126712431	0.5595658020520652	0.34391143582940936	0.7358855451591764	0.6464248170649868	0.40397641922808514	0.7508350599876704	0.6398137747249693	0.2645976935121988	0.9903382104849671	0.5986360248313699	0.17215120498441674	0.3547659623306032	-0.15667389933509124	0.14514134706592777	0.6097687232160567	0.22468237954095321	0.12788646401844203	0.8253377482981946	0.5819024894165257	0.2060988378579349	0.6555512446026913	0.6513749689634001	0.13312406650592928	0.7167734135643364	0.659868392466258	0.13053405702722287	0.9020266274251828	0.6160516780767605	0.2933325427415228	0.11199432335437826	-0.6526359346129349	0.31732827635462246	-0.05040185408029661	-0.8516565537680296	0.3258697663173762	-0.05454891680150885	-0.705858255559335	0.4247135240240279	0.1738311905363907	-0.575814784114956	0.43028398717872035	0.2816347949777627	-0.37574909221803554	0.370416874200086	0.2755975298009857	-0.1265753553225168	0.2982149766574359	0.2822856951563837	-0.030348161613652707	0.2967836293057894	0.29385560059774307	-0.02629820474368699	0.31389789941863433	0.2786306511713964	-0.017842083946799366	0.1393451786373518	0.1341049822252816	-0.5558335267071047	0.13834619916525967	0.20102819787307002	-0.31452894622826916	0.2556246473298537	0.26710926793429596	-0.1292885094190448	0.3324911096516144	0.27025849440142824	-0.04486342962925146	0.3315309315235757	0.2810897782056741	-0.03013638310275937	0.3073902982950486	0.2737284442265441	-0.027941616940294827
3	0.0508474576271186	0.35910543564854613	0.4250445473886173	-0.19647307333505526	0.3458708100575333	0.6674880352668258	0.21224350024309294	0.324080436760238	0.8524657622943623	0.5599334043888707	0.34404551177381015	0.7343302346823467	0.6459900798470726	0.40184762083871167	0.7545469529888226	0.6399078966228275	0.26438368568133264	0.9921325055967805	0.5978788502424741	0.17075015606403904	0.3564189514353352	-0.15581336638743323	0.14480569629067652	0.6092826421263046	0.22428840754250184	0.12787190746770272	0.8257986310346708	0.5823434258785469	0.20529495968572303	0.6533779819997226	0.6513485268227875	0.13313853852101293	0.716817363191298	0.6598731025602064	0.13043145371347847	0.9026443541618931	0.6169118741464351	0.29330739663430183	0.11204872687772917	-0.652659498032517	0.31732626516319906	-0.05054133363364355	-0.851968206841494	0.3258563789064296	-0.05446375787747733	-0.7058967380093957	0.42467395476460623	0.17385261245841402	-0.5758454779807739	0.4294586606697214	0.2826084738848544	-0.3765374929784908	0.3704762896075833	0.27483452812407094	-0.12623165452228402	0.29745630650856847	0.2811907290672591	-0.031067185788241386	0.29652787038378	0.2909373768868851	-0.026721594318749882	0.3136051512626498	0.2787795317123415	-0.017539787585606884	0.13934843035622904	0.1341160933552734	-0.5558004032195305	0.13778409466369634	0.20277639155083418	-0.3146431509264138	0.257643261316985	0.26403630476372014	-0.12930473874838927	0.33228810297344463	0.2703772806051993	-0.04517295414395972	0.33140643321856567	0.2802981614625629	-0.030067444129301166	0.3078300805765418	0.27295588310926	-0.028173520331923586
